<?xml version="1.0" standalone="no"?>
<!DOCTYPE svg PUBLIC "-//W3C//DTD SVG 20010904//EN"
 "http://www.w3.org/TR/2001/REC-SVG-20010904/DTD/svg10.dtd">
<svg version="1.0" xmlns="http://www.w3.org/2000/svg"
 width="100.000000pt" height="100.000000pt" viewBox="0 0 100.000000 100.000000"
 preserveAspectRatio="xMidYMid meet">
<metadata>
Created by potrace 1.11, written by Peter Selinger 2001-2013
</metadata>
<g transform="translate(0.000000,100.000000) scale(0.100000,-0.100000)"
fill="#000000" stroke="none">
<path d="M91 776 c-8 -9 -11 -92 -9 -281 3 -235 5 -269 19 -278 13 -8 45 5
147 61 71 40 132 72 136 72 3 0 6 -26 6 -59 0 -82 15 -93 83 -58 52 26 145 77
267 146 36 20 81 45 102 55 62 33 81 51 74 72 -7 22 -2 19 -310 189 -206 114
-209 114 -214 16 -2 -33 -6 -61 -9 -61 -3 0 -62 32 -132 70 -70 39 -132 70
-138 70 -6 0 -16 -6 -22 -14z"/>
</g>
</svg>
